<svg xmlns="http://www.w3.org/2000/svg" viewBox="0 0 1080 1080">
  <defs>
    <radialGradient id="c" gradientTransform="matrix(2 0 0 2 0 -1)">
      <stop offset="26%" stop-color="#fd065a" />
      <stop offset="44.5%" stop-color="rgba(233, 33, 95, 0.75)" />
      <stop offset="63%" stop-color="rgba(214, 45, 96, 0.5)" />
      <stop offset="100%" stop-color="rgba(177, 56, 94, 0)" />
    </radialGradient>
    <radialGradient id="d" gradientTransform="translate(-.5 -.5)">
      <stop offset="0%" stop-color="#4d68e4" />
      <stop offset="25%" stop-color="rgba(77, 104, 228, 0.75)" />
      <stop offset="50%" stop-color="rgba(77, 104, 228, 0.5)" />
      <stop offset="100%" stop-color="rgba(77, 104, 228, 0)" />
    </radialGradient>
    <radialGradient id="e" gradientTransform="matrix(2 0 0 2 -1 0)">
      <stop offset="0%" stop-color="#09c4f7" />
      <stop offset="25%" stop-color="rgba(9, 196, 247, 0.75)" />
      <stop offset="50%" stop-color="rgba(9, 196, 247, 0.5)" />
      <stop offset="100%" stop-color="rgba(9, 196, 247, 0)" />
    </radialGradient>
    <radialGradient id="f" gradientTransform="matrix(1.5 0 0 1.5 .25 .25)">
      <stop offset="0%" stop-color="#a33fbd" />
      <stop offset="99%" stop-color="rgba(163, 63, 189, 0)" />
    </radialGradient>
    <linearGradient id="b" x1="0" x2="1" y1=".5" y2=".5">
      <stop offset="0%" stop-color="#4d68e4" />
      <stop offset="25%" stop-color="#4d68e4" />
      <stop offset="50%" stop-color="#4d68e4" />
      <stop offset="100%" stop-color="#4d68e4" />
    </linearGradient>
    <clipPath id="a">
      <path fill="none" d="M553 1057.05c-58.52 0-120.94-3.88-189.35-11.53C193.37 1026.48 56.74 862 36 720.22a1254.81 1254.81 0 0 1 .19-361c20.93-141.7 157.74-306.09 328-325C502.21 19 615.92 19.18 722 34.86c141.72 21 306.1 157.77 324.94 328.07 13.42 121 13.36 233.71-.2 354.71-19 170.25-183.55 306.87-325.3 327.67-53.53 7.86-109 11.77-168.5 11.74m.36-854.94c-51.82 0-107.68 3.38-169.45 10.22-81.64 9-160 102.07-170.52 173.09a1073.23 1073.23 0 0 0-.17 308.79c10.4 71 88.72 164.16 170.33 173.29 122.28 13.67 221.43 13.86 312 .58 71-10.43 164.17-88.75 173.28-170.36 12.18-108.94 12.24-206.12.17-315.09-9-81.64-102.07-160-173.09-170.54-44.78-6.62-91.71-10-142.5-10" />
    </clipPath>
  </defs>
  <g clip-path="url(#a)">
    <rect width="100%" height="100%" fill="url(#b)" />
    <rect width="100%" height="100%" fill="url(#c)" />
    <rect width="100%" height="100%" fill="url(#d)" />
    <rect width="100%" height="100%" fill="url(#e)" />
    <rect width="100%" height="100%" fill="url(#f)" />
  </g>
</svg>